<svg width="224" height="56" viewBox="0 0 224 56" fill="none" xmlns="http://www.w3.org/2000/svg">
<path d="M81.6336 41.45C77.6336 42.35 69.5336 43.65 70.4336 37.75C71.1336 33.35 78.1336 33.35 82.6336 33.95L81.6336 41.45ZM66.9336 25.15C72.7336 23.85 83.3336 20.35 83.2336 29.15C78.1336 29.25 74.3336 28.55 69.5336 30.25C57.2336 34.75 60.9336 52.05 82.6336 46.85C89.3336 45.25 88.1336 44.85 89.1336 38.25C90.3336 30.55 93.0336 20.85 82.3336 18.25C79.3336 17.55 71.7336 17.95 68.8336 18.95L66.9336 25.15ZM167.234 29.95L154.134 30.05C155.034 21.95 168.534 19.45 167.234 29.95ZM169.934 40.55C166.134 41.25 163.134 42.75 158.834 42.05C155.034 41.35 152.834 39.35 153.134 34.95H173.534C174.134 28.85 175.234 19.75 165.034 18.15C146.534 15.35 139.534 38.85 151.334 45.85C156.034 48.65 167.034 47.85 168.234 45.95C168.634 45.45 169.734 41.45 169.934 40.55ZM199.634 40.25L198.034 45.75C204.934 49.75 225.034 47.85 220.734 35.95C219.934 33.75 218.234 32.45 216.234 31.25C214.934 30.45 211.234 28.75 210.434 27.85C208.034 24.95 212.134 21.05 221.834 24.95C222.434 24.15 222.534 23.45 222.934 22.35C223.334 21.25 223.534 20.65 223.834 19.55C218.634 18.35 213.634 16.95 208.034 19.05C203.834 20.65 196.634 28.15 208.434 34.55C210.234 35.55 213.334 36.65 213.234 38.95C213.134 41.55 209.834 42.05 207.134 41.95C203.634 41.95 202.534 41.05 199.634 40.25ZM198.834 19.45C193.634 18.45 188.234 16.75 182.734 19.15C180.434 20.15 178.934 21.25 177.934 23.55C173.534 33.85 189.034 34.45 188.334 39.15C187.934 41.55 184.734 42.05 182.034 41.95C178.934 41.85 177.534 41.15 174.934 40.25C174.134 41.25 173.334 44.15 173.234 45.75C176.834 47.85 185.334 48.15 189.534 46.75C193.634 45.35 198.334 41.05 195.634 35.35C193.634 31.25 186.334 29.65 185.234 27.35C183.734 24.35 187.334 23.35 189.634 23.25C192.834 23.15 194.534 24.05 197.134 24.95L198.834 19.45ZM120.134 19.55C114.434 18.05 108.834 17.05 103.034 19.45C92.8336 23.55 89.8336 38.55 98.1336 44.95C102.234 48.05 108.634 48.05 114.634 47.05L116.734 40.75C112.734 41.65 109.034 42.75 105.234 40.45C99.2336 36.75 100.634 27.05 107.634 24.45C112.234 22.75 114.434 24.15 118.334 25.05L120.134 19.55ZM142.934 40.85C138.734 41.65 135.534 42.75 131.634 40.65C125.934 37.55 126.434 27.55 133.834 24.55C138.434 22.65 140.634 24.45 144.534 25.05L146.434 19.65C140.434 18.05 133.634 16.95 128.034 20.05C116.034 26.65 114.434 50.15 138.334 47.45C140.934 47.15 140.834 47.45 141.534 45.25C142.034 43.75 142.634 42.35 142.934 40.85Z" fill="#E7E7E7"/>
<path d="M22.5335 4.94999L47.3335 29.65L25.9335 51.05L4.53355 29.65L14.8335 19.05H10.6335L0.133545 29.65L25.9335 55.45L51.6335 29.65L22.6335 0.549988L22.5335 4.94999Z" fill="#E7E7E7"/>
<path d="M22.6335 19.15L18.1335 19.05L7.8335 29.65L25.9335 47.75L44.0335 29.65L22.6335 8.14999L22.5335 12.35L39.8335 29.65L25.9335 43.55L12.1335 29.65L22.6335 19.15Z" fill="#E7E7E7"/>
<path d="M25.8335 23.45L32.1335 29.65L25.8335 35.85L19.5335 29.65L25.8335 23.45ZM36.4335 29.65L25.8335 19.05L15.2335 29.65L25.8335 40.25L36.4335 29.65Z" fill="#E7E7E7"/>
</svg>
