<svg width="84" height="84" viewBox="0 0 84 84" fill="none" xmlns="http://www.w3.org/2000/svg">
<path d="M3.35495 0H80.6451C82.498 0 84 1.50197 84 3.35495V80.6451C84 82.498 82.498 84 80.6451 84H3.35495C1.50209 84 0 82.498 0 80.6451V3.35495C0 1.50197 1.50209 0 3.35495 0Z" fill="#555555"/>
<path d="M16.2278 33.8644V36.9677H23.0924V39.8252H16.2278V45.395H13.0625V31.0077H24.0165V33.8644H16.2278Z" fill="white"/>
<path d="M38.034 44.1407C37.6308 44.4596 37.193 44.7319 36.7287 44.9527C36.2342 45.1853 35.7132 45.3564 35.1772 45.4629C34.5545 45.5852 33.9212 45.6438 33.2866 45.6379C32.2779 45.6472 31.2778 45.4513 30.3472 45.0624C29.4706 44.6973 28.6744 44.1633 28.0041 43.4904C27.3396 42.8154 26.8159 42.0157 26.4626 41.137C26.0896 40.2164 25.9009 39.2319 25.9074 38.2386V38.1979C25.9 37.2071 26.0887 36.2246 26.4626 35.3072C26.8205 34.4282 27.3437 33.6261 28.0041 32.9443C28.6759 32.2563 29.4799 31.7109 30.3677 31.3409C31.333 30.943 32.369 30.7458 33.4129 30.7612C34.03 30.7565 34.6459 30.8114 35.2522 30.9253C35.7696 31.0244 36.276 31.176 36.7629 31.3777C37.2052 31.5643 37.6255 31.7986 38.0168 32.0763C38.3974 32.348 38.7547 32.6507 39.0857 32.9811L37.069 35.3028C36.554 34.8293 35.9763 34.4288 35.3525 34.1126C34.7402 33.8186 34.0682 33.6712 33.3891 33.6816C32.8125 33.6763 32.2411 33.7955 31.7145 34.031C31.2099 34.2571 30.7583 34.5861 30.389 34.997C30.0146 35.415 29.7219 35.8994 29.5259 36.425C29.3177 36.9805 29.213 37.569 29.2173 38.162V38.203C29.2137 38.7993 29.3182 39.3911 29.5259 39.95C29.7189 40.4775 30.0072 40.9652 30.3763 41.3886C31.1379 42.2504 32.2367 42.7378 33.3868 42.7245C34.2091 42.7245 34.9045 42.5737 35.4732 42.2721C36.0895 41.9365 36.6593 41.5223 37.1683 41.0394L39.1824 43.0739C38.8273 43.458 38.4432 43.8147 38.034 44.1407Z" fill="white"/>
<path d="M52.9753 45.395V36.0017L48.9258 42.1472H48.8406L44.8327 36.0637V45.395H41.7124V31.0077H45.1234L48.9053 37.0917L52.6868 31.0077H56.0988V45.395H52.9753Z" fill="white"/>
<path d="M68.6361 41.0172C68.6509 40.568 68.4433 40.1402 68.0808 39.8745C67.7105 39.594 67.1155 39.4523 66.2955 39.4493H62.6393V42.6146H66.4008C67.0997 42.6146 67.6476 42.488 68.0452 42.2347C68.4423 41.9813 68.6409 41.5873 68.6403 41.0528L68.6361 41.0172ZM67.8342 35.2622C67.8342 34.7825 67.6562 34.4161 67.3002 34.1628C66.9442 33.9095 66.4305 33.7828 65.7588 33.7828H62.6344V36.8238H65.5506C66.2495 36.8238 66.8042 36.704 67.2154 36.4642C67.6263 36.2246 67.8315 35.8374 67.8315 35.3028L67.8342 35.2622ZM71.3806 43.1751C71.126 43.6699 70.7523 44.0936 70.293 44.4077C69.7762 44.7563 69.1998 45.0073 68.5925 45.1482C67.8684 45.3196 67.1261 45.4025 66.382 45.395H59.5514V31.0077H66.2198C67.6963 31.0077 68.855 31.3436 69.6961 32.0152C70.5374 32.6869 70.9581 33.5911 70.9586 34.7282V34.7732C70.9647 35.142 70.9128 35.5096 70.8048 35.8623C70.7089 36.1635 70.5716 36.4494 70.3968 36.7126C70.2304 36.9618 70.0298 37.1866 69.8017 37.381C69.5792 37.5714 69.3363 37.737 69.0773 37.8741C69.9089 38.1896 70.5633 38.618 71.0412 39.1585C71.5191 39.6994 71.7575 40.4482 71.757 41.4049V41.4455C71.7716 42.0439 71.6425 42.6369 71.3806 43.1751Z" fill="white"/>
<path d="M71.5207 54.6135V61.6583H12.748V57.9534C12.7476 56.1093 14.242 54.6141 16.086 54.6135C16.0865 54.6135 16.0871 54.6135 16.0877 54.6135H71.5207Z" fill="#E7E7E7"/>
<path d="M12.748 63.9394H71.5207V70.9843H16.0877C14.2438 70.9849 12.7485 69.4902 12.748 67.6465C12.748 67.6456 12.748 67.6448 12.748 67.6438V63.9394Z" fill="#E7E7E7"/>
</svg>
