<svg width="87" height="87" viewBox="0 0 87 87" fill="none" xmlns="http://www.w3.org/2000/svg">
<path d="M0 87H87V0H0V87Z" fill="#555555"/>
<path d="M18.9428 63.0285C18.4607 63.1663 16.1416 63.8092 14.0521 63.8092C11.3886 63.8092 8.70215 63.0056 8.70215 56.7601C8.70215 50.5376 12.2841 49.5044 14.9935 49.5044C16.9911 49.5044 18.4147 50.2162 18.4147 50.2162V52.099C18.4147 52.099 16.6697 51.4101 14.9935 51.4101C13.2485 51.4101 11.159 52.2138 11.159 56.6683C11.159 61.2375 12.7433 61.9493 14.144 61.9493C15.1542 61.9493 16.463 61.6738 16.463 61.6738V57.0127H14.2588L14.144 55.1758H18.9199C18.9428 55.1528 18.9428 63.0285 18.9428 63.0285ZM20.4353 49.5044H30.699L30.4234 51.7086H27.0711V63.7862H24.3846V51.7775H20.4583V49.5044H20.4353ZM32.9033 49.5503L37.6562 49.4584C43.6491 49.4584 43.4884 55.8646 39.9983 56.255C43.7869 56.852 43.6261 62.4545 39.9983 63.7633H32.8803C32.9033 63.7633 32.9033 49.5503 32.9033 49.5503ZM35.5668 51.7086V55.3595H38.0695C39.539 55.2676 40.2968 52.099 38.1614 51.7086H35.5668ZM35.5668 57.3801V61.4901H38.0695C40.8478 61.4901 40.2968 57.4719 38.1614 57.3801H35.5668ZM45.4171 53.5226C49.045 51.8694 53.178 52.2367 53.798 54.9691V63.8092H51.2952V62.3856C49.0909 64.7736 43.8558 64.3143 44.5446 59.4236C44.9579 57.1734 47.4377 56.5075 51.0656 56.7601C51.4329 53.6144 47.3229 55.0839 45.4171 55.635C45.4171 55.658 45.4171 53.5226 45.4171 53.5226ZM47.5295 59.0103C45.9452 61.6968 49.1368 62.6382 51.1115 60.5257V58.6659C49.9175 58.3215 48.0806 58.2985 47.5295 59.0103ZM58.9872 56.0483L58.9413 63.8092H56.163V52.6501H58.8035V53.9129C62.661 51.6627 65.8296 52.2367 66.4496 55.5891V63.7862H63.6713V56.0483C63.1202 54.0048 59.6531 55.3365 58.9872 56.0483ZM68.5161 63.8092V49.5044H71.2714V63.8092H68.5161ZM75.1059 52.6501H78.3894L74.5319 57.6326L78.6649 63.7862H75.6111L71.547 57.4719L75.1059 52.6501ZM49.6879 34.2352H71.4322V12.4909H49.6879V34.2352Z" fill="#E7E7E7"/>
</svg>
