<svg width="94" height="62" viewBox="0 0 94 62" fill="none" xmlns="http://www.w3.org/2000/svg">
<path d="M21.2276 51.1275L20.7651 50.9336C16.3887 49.0935 12.3879 46.6318 8.85696 43.6554C8.72019 43.5386 8.64062 43.367 8.64062 43.188V25.0436C8.64062 24.7128 8.90669 24.4468 9.2374 24.4443C13.3328 24.412 17.3883 24.1086 21.3793 23.5417C21.7398 23.4895 22.0655 23.768 22.0655 24.1335V50.573C22.0655 51.0007 21.6254 51.2941 21.2276 51.1275ZM37.604 19.6676C33.6504 21.0128 29.5948 22.0796 25.4622 22.8628C25.1787 22.9175 24.9748 23.1637 24.9748 23.4522V52.0227C24.9748 52.2888 25.1489 52.5275 25.405 52.6046C29.4581 53.8304 33.6156 54.4844 37.7831 54.5665C38.1213 54.5739 38.3997 54.2954 38.3997 53.9597V20.2346C38.3973 19.8218 37.9944 19.5333 37.604 19.6676ZM53.8239 12.2676C49.9249 14.5428 45.8694 16.5147 41.6845 18.1682C41.4557 18.2602 41.304 18.479 41.304 18.7252V53.8404C41.304 54.191 41.6024 54.4745 41.9506 54.4471C46.1354 54.1462 50.2905 53.2685 54.3286 51.8138C54.5673 51.7243 54.729 51.4956 54.729 51.2394V12.7848C54.7315 12.3174 54.2292 12.0339 53.8239 12.2676ZM70.0486 0.165545C66.2442 3.7263 62.1837 6.92401 57.9093 9.73631C57.7402 9.84571 57.6382 10.0347 57.6382 10.2336V49.5312C57.6382 49.9713 58.1007 50.2697 58.4986 50.0807C63.1186 47.8975 67.2861 45.0131 70.8767 41.5319C70.996 41.4175 71.0632 41.2584 71.0632 41.0943V0.600693C71.0632 0.0710564 70.4341 -0.195005 70.0486 0.165545Z" fill="#42B27C"/>
<path d="M76.1856 28.0298L80.654 28.9126C81.0295 28.9872 81.2483 29.3925 81.0941 29.7456C78.6821 35.308 75.2731 40.2413 71.0633 44.369C67.2117 48.1436 62.6836 51.2294 57.6384 53.4922C57.1436 53.716 56.6488 53.9398 56.144 54.1462C55.6765 54.3351 55.2016 54.5067 54.7316 54.6833C50.3627 56.302 45.8471 57.2444 41.3067 57.5055C40.3394 57.5627 39.3697 57.5975 38.3974 57.5925C33.8793 57.5627 29.3638 56.859 24.975 55.4864C23.9953 55.1806 23.028 54.8324 22.0657 54.4595C21.6306 54.2929 21.1954 54.1312 20.7652 53.9497C16.2969 52.0724 12.2264 49.546 8.64079 46.4851C5.31129 43.6454 2.40201 40.3458 0 36.6557C5.10739 45.8311 13.2086 53.43 23.6397 57.8213C48.1646 68.138 76.3696 56.8466 87.0569 32.5902C87.211 32.2371 87.6512 32.1153 87.962 32.3465L91.9728 35.313C92.3632 35.6014 92.9127 35.3353 92.9351 34.853L93.9993 9.14692C94.0242 8.58744 93.3379 8.30149 92.955 8.70929L75.8624 27.0278C75.5416 27.3709 75.7231 27.9378 76.1856 28.0298Z" fill="#C4C4C4"/>
</svg>
