<svg width="179" height="57" viewBox="0 0 179 57" fill="none" xmlns="http://www.w3.org/2000/svg">
<mask id="mask0_531_449" style="mask-type:luminance" maskUnits="userSpaceOnUse" x="0" y="0" width="179" height="57">
<path d="M179 0.53125H0V56.4688H179V0.53125Z" fill="white"/>
</mask>
<g mask="url(#mask0_531_449)">
<path d="M48.7333 12.0209V46.9949H54.1197V33.2473C55.6191 35.9025 58.5888 37.2004 61.8208 37.2004C68.7649 37.2004 73.3798 32.0522 73.3798 24.4998C73.3798 16.9621 68.9688 11.5044 62.3447 11.5044C58.9964 11.5044 55.5607 13.4809 53.9158 16.3869V12.0207L48.7333 12.0209ZM60.9472 32.3622C57.2495 32.3622 53.9159 29.2942 53.9159 24.5001C53.9159 19.7208 57.3517 16.446 60.9472 16.446C64.8051 16.446 67.9934 19.7649 67.9934 24.5001C67.9934 29.25 64.8633 32.3622 60.9472 32.3622ZM93.9751 27.3175C93.2036 30.6954 90.8889 32.5246 87.3951 32.5246C85.4442 32.5246 83.7555 31.8904 82.2706 30.6956C80.8295 29.4565 80.1015 27.6275 80.1015 25.2379H97.309C97.4691 24.2938 97.5711 23.3644 97.5711 22.3763C97.5711 15.6646 92.9415 11.5048 86.5799 11.5048C79.4466 11.5048 74.7151 17.1247 74.7151 24.1903C74.7151 32.1559 79.8541 37.2007 87.3514 37.2007C93.1018 37.2007 96.9013 34.2946 98.5904 29.1318L93.9751 27.3175ZM80.1015 21.5942C80.5675 18.2604 83.1877 16.1805 86.5215 16.1805C89.8117 16.1805 92.2282 18.0538 92.2282 21.122L92.1702 21.5942H80.1015ZM112.46 32.5244C108.558 32.5244 104.759 29.2497 104.759 24.1902C104.759 18.9979 108.398 16.1805 111.95 16.1805C115.488 16.1805 118.05 18.4226 118.618 22.1105L123.495 20.5468C122.476 14.9266 117.948 11.5046 111.95 11.5046C105.224 11.5046 99.6196 16.7557 99.6196 24.1902C99.6196 31.9933 104.802 37.2004 112.722 37.2004C118.822 37.2004 123.553 33.6159 124.79 27.3172L119.899 25.503C119.346 29.6037 116.973 32.5244 112.46 32.5244ZM126.169 29.6628C126.169 34.3978 130.173 37.2007 134.176 37.2007C138.486 37.2007 141.266 35.2831 142.343 32.5246V36.6844H147.482V21.3288C147.482 15.0891 143.625 11.5048 136.695 11.5048C130.741 11.5048 126.985 14.6763 125.908 19.5143L130.785 20.8125C131.352 17.8476 133.463 15.9153 136.695 15.9153C139.928 15.9153 142.344 17.7887 142.344 21.0781V22.8926L139.781 22.2729C138.384 21.9043 136.957 21.7567 135.458 21.7567C130.071 21.7567 126.169 24.2936 126.169 29.6628ZM142.343 27.3175C142.343 30.5922 139.883 32.5246 136.331 32.5246C133.259 32.5246 131.818 31.0643 131.818 29.1318C131.818 26.9047 133.608 25.8572 136.331 25.8572C137.306 25.8572 138.645 26.0638 140.392 26.5356L142.343 27.0519V27.3175Z" fill="#E7E7E7"/>
<path d="M157.087 36.6841V22.951C157.087 18.7323 159.562 16.1805 162.837 16.1805C165.923 16.1805 167.874 18.4668 167.874 22.4202V36.6841H173.261V20.5468C173.261 14.9266 169.825 11.5045 164.744 11.5045C161.513 11.5045 158.79 12.7436 157.087 15.6052V12.0209H151.7V36.6841H157.087Z" fill="#E7E7E7"/>
<path d="M171.743 9.17778H172.524V5.93033H173.871V5.2027H170.383V5.93033H171.743V9.17778ZM174.275 9.17778H175.059V5.73714L176.105 9.17778H177.169L178.215 5.73714V9.17778H179V5.2027H177.59L176.637 8.4815L175.684 5.2027H174.275V9.17778Z" fill="#E7E7E7"/>
<path d="M24.656 29.8651C22.7767 31.5047 20.079 32.0081 17.7846 31.1502C17.5993 31.08 17.4526 31.0036 17.3451 30.9365C17.6375 30.51 18.5586 29.7102 20.4708 28.886C22.4212 28.041 24.2559 27.8513 25.9657 28.316C25.5897 28.9135 25.1511 29.4329 24.656 29.8651ZM37.6778 30.6467C37.4325 30.1472 37.0365 29.7412 36.6394 29.3533C35.3182 28.0637 33.9097 26.8663 32.4275 25.7716C33.26 19.3818 31.5617 12.6891 27.7896 7.49916C25.767 4.71666 22.989 2.31374 19.7244 1.19709C18.2911 0.707024 16.3399 0.244912 14.8711 0.752349C13.2507 1.31266 11.6702 2.11224 10.2707 3.1173C8.47751 4.40431 6.92572 6.02689 5.65741 7.84135C3.38657 11.0897 1.99991 14.9019 1.12392 18.7822C-0.779947 27.2171 -0.315116 36.2596 2.9126 44.2698C4.49496 48.194 6.82507 51.9607 10.3083 54.3094C13.7908 56.6584 18.5849 57.32 22.1757 55.1441C22.7363 54.8046 23.2732 54.3884 23.6091 53.8198C24.5437 52.2325 23.1402 49.845 21.3177 49.922C20.4177 49.9593 19.6132 50.47 18.7589 50.7603C16.6854 51.4658 14.33 50.8203 12.5717 49.5021C10.8136 48.1836 9.57716 46.2712 8.59996 44.2882C6.04061 39.0911 5.04628 33.1904 5.20339 27.384C5.34354 22.2294 6.39584 17.0322 8.83424 12.5057C9.77639 10.7579 10.9448 9.09267 12.5195 7.90046C14.0941 6.70902 16.1224 6.03142 18.0545 6.39855C20.1342 6.7923 21.8382 8.31159 23.1581 9.98705C26.0839 13.701 27.642 18.4954 27.4675 23.2447C23.3409 22.3034 18.8343 23.2329 15.3982 25.7329C13.4814 27.1276 11.7908 29.3093 12.0921 31.6819C12.422 34.2804 15.0197 36.005 17.5512 36.5407C22.453 37.5778 27.8763 35.2188 30.5098 30.9036C32.2202 31.9225 33.2991 34.1928 35.2803 34.3147C37.013 34.4213 38.443 32.2717 37.6953 30.6841C37.6901 30.6719 37.6835 30.6597 37.6778 30.6467Z" fill="#E7E7E7"/>
</g>
</svg>
