<svg width="107" height="84" viewBox="0 0 107 84" fill="none" xmlns="http://www.w3.org/2000/svg">
<g clip-path="url(#clip0_526_363)">
<path d="M60.0816 44.9802C60.1261 44.8986 60.1621 44.8127 60.2014 44.729L74.4361 13.7918C74.5527 13.5395 74.6704 13.2883 74.7848 13.035C74.8251 12.9481 74.8654 12.8717 74.982 12.8728C75.2438 12.8728 75.5067 12.8728 75.8056 12.8728C75.7399 13.0318 75.6996 13.1495 75.6445 13.2629C70.5692 24.3279 65.4943 35.3925 60.4197 46.4568C60.2173 46.8977 60.0084 47.3376 59.8134 47.7818C59.6417 48.174 59.6671 48.5556 59.9512 48.8884C60.0748 49.0438 60.2404 49.1603 60.4283 49.2242C60.6162 49.2881 60.8185 49.2966 61.0112 49.2488C61.4352 49.163 61.6472 48.8693 61.8126 48.5068C66.8772 37.4849 71.9401 26.4652 77.0013 15.4475C77.4846 14.396 77.9553 13.3413 78.4535 12.294C78.727 11.7132 78.5054 10.8959 77.7422 10.738V10.668H73.9199C73.9236 10.6788 73.9249 10.6902 73.9238 10.7016C73.9227 10.7129 73.9192 10.7239 73.9135 10.7337C73.498 10.8249 73.2775 11.1185 73.1068 11.4757C72.5415 12.7067 71.9762 13.9374 71.4109 15.1677C67.3913 23.9403 63.3676 32.7107 59.3396 41.479C59.2823 41.6052 59.2219 41.7292 59.153 41.8755C58.994 41.7695 58.9919 41.5935 58.906 41.4695C58.6113 41.0455 58.6834 40.6543 58.8965 40.1911C63.0432 31.1719 67.1772 22.1474 71.2985 13.1177C71.4278 12.8336 71.5614 12.5506 71.6896 12.2697C71.9928 11.5955 71.6695 10.9213 70.954 10.7274C70.9505 10.7071 70.9425 10.6879 70.9307 10.6712H67.1836C67.1894 10.693 67.1863 10.7162 67.1751 10.7358C66.7617 10.8196 66.5168 11.0931 66.3493 11.4588C65.7035 12.8686 65.0565 14.2777 64.4085 15.686L55.8914 34.236C55.8522 34.3198 55.8119 34.4025 55.7589 34.5106C55.5872 34.3283 55.5469 34.0951 55.4303 33.9096C55.2119 33.564 55.2469 33.2555 55.4197 32.8814C58.5389 26.1263 61.6483 19.3671 64.7477 12.6036C64.8802 12.3152 64.9798 12.028 64.9067 11.7004C64.8657 11.4889 64.7596 11.2956 64.6031 11.1475C64.4467 10.9994 64.2477 10.904 64.0343 10.8747C63.9077 10.8597 63.7802 10.8536 63.6527 10.8567C62.6796 10.8567 61.7065 10.8747 60.7345 10.8493C60.1049 10.8323 59.7159 11.1015 59.4625 11.6612C57.7552 15.3952 56.0412 19.1275 54.3205 22.858C53.712 24.183 53.1036 25.508 52.4951 26.833C52.4527 26.9273 52.4019 27.0174 52.3319 27.1563C52.1623 26.7853 52.0139 26.4525 51.856 26.1186C51.7977 25.9903 51.8878 25.896 51.9333 25.8006C52.4358 24.6939 52.9407 23.5887 53.4481 22.4849C54.9801 19.1395 56.5118 15.7938 58.0432 12.4477C58.2552 11.9877 58.1927 11.5308 57.8768 11.1895C57.7898 11.0878 57.6822 11.0058 57.5609 10.9492C57.4397 10.8925 57.3078 10.8624 57.174 10.8609C56.0271 10.8609 54.8801 10.8514 53.7332 10.8609C53.2403 10.8609 52.9213 11.1524 52.722 11.586L51.5772 14.078C50.7525 15.8758 49.9268 17.6718 49.1 19.466C49.0586 19.5572 49.0406 19.6674 48.9251 19.7342L48.0675 17.876C47.1358 15.8472 46.1966 13.8204 45.2787 11.7852C45.0667 11.3072 44.8165 10.8874 44.3151 10.6712H43.8286C43.7406 10.7857 43.5933 10.8047 43.483 10.8832C43.1237 11.1418 42.9435 11.48 42.9975 11.9273C43.0296 12.0861 43.0857 12.2391 43.164 12.381C44.648 15.6217 46.132 18.8614 47.616 22.1001C47.6656 22.1893 47.6926 22.2892 47.6946 22.3912C47.6966 22.4932 47.6736 22.5942 47.6276 22.6852C45.8249 26.5924 44.0279 30.5013 42.2365 34.412C42.2093 34.4998 42.1609 34.5795 42.0955 34.6441C42.0076 34.5287 41.9389 34.3998 41.892 34.2625C38.4385 26.745 34.9854 19.2268 31.5326 11.7079C31.479 11.58 31.4152 11.4566 31.3418 11.339C31.0238 10.8641 30.4471 10.703 29.9733 10.9574C29.4221 11.2499 29.2165 11.8054 29.455 12.3672C29.4963 12.4636 29.5419 12.5569 29.5843 12.6523L40.9772 37.5199C41.0222 37.6285 41.0728 37.7346 41.1288 37.8379C41.5602 38.5799 42.528 38.599 42.9891 37.8814C43.0712 37.7419 43.1437 37.5971 43.2064 37.4478L48.7555 25.402C48.7982 25.277 48.8612 25.1599 48.942 25.0554C49.1042 25.2875 49.1763 25.5589 49.3141 25.7974C49.4264 25.9903 49.3999 26.1567 49.3088 26.3507C48.8275 27.3778 48.3548 28.4103 47.8863 29.4406C46.1903 33.1315 44.4943 36.8224 42.7983 40.5134C42.7248 40.6582 42.686 40.8183 42.6851 40.9807C42.6842 41.1432 42.7211 41.3036 42.793 41.4493C42.8831 41.638 42.9689 41.8278 43.0548 42.0175C43.5074 43.0192 43.9621 44.0198 44.4095 45.0237C44.56 45.3607 44.7868 45.6035 45.1515 45.6968C45.7376 45.8462 46.2231 45.6151 46.4881 45.047C47.0393 43.8608 47.5831 42.6726 48.1301 41.4843C49.4727 38.5615 50.8175 35.6395 52.1644 32.7181C52.2079 32.6238 52.2227 32.5061 52.3489 32.4446C52.4623 32.6916 52.5534 32.9312 52.6775 33.1517C52.8015 33.3721 52.7771 33.547 52.6775 33.7665C50.5469 38.4001 48.4191 43.0365 46.2941 47.6758C46.2411 47.7913 46.1828 47.9058 46.1415 48.0256C46.0894 48.1647 46.0678 48.3135 46.0782 48.4617C46.0885 48.6099 46.1305 48.7542 46.2013 48.8848C46.2721 49.0154 46.3701 49.1293 46.4887 49.2188C46.6074 49.3083 46.7438 49.3713 46.8888 49.4036C47.4029 49.5361 47.8831 49.2976 48.129 48.7676C48.6943 47.5486 49.2547 46.3289 49.8102 45.1085C51.1444 42.2069 52.4792 39.3057 53.8148 36.4048C53.8636 36.2988 53.8784 36.1621 54.0205 36.0995C54.1042 36.2787 54.1827 36.4461 54.26 36.6136C54.4201 36.9602 54.5696 37.3132 54.7434 37.6524C54.8285 37.8321 54.9623 37.9842 55.1297 38.0914C55.2971 38.1986 55.4912 38.2566 55.69 38.2587C56.1256 38.2746 56.432 38.0467 56.6546 37.6853C56.7169 37.5743 56.7732 37.46 56.8231 37.3429L67.2472 14.696C67.4938 14.1596 67.7411 13.6236 67.9892 13.088C68.0379 12.982 68.0708 12.8664 68.2234 12.876C68.4757 12.8876 68.7301 12.8537 68.9877 12.8982C68.9983 13.0816 68.8923 13.2162 68.8276 13.3572C65.5303 20.5525 62.2309 27.7464 58.9293 34.9388C58.099 36.7479 57.2683 38.5566 56.4373 40.365C56.3686 40.4929 56.3293 40.6346 56.3223 40.7796C56.3153 40.9247 56.3409 41.0695 56.397 41.2034C56.9623 42.4606 57.5298 43.7153 58.0994 44.9675C58.2933 45.3915 58.6474 45.577 59.1053 45.5802C59.3089 45.5866 59.5099 45.5332 59.6834 45.4266C59.857 45.32 59.9954 45.1647 60.0816 44.9802ZM50.2448 22.1499C50.6864 21.1832 51.1309 20.2168 51.5782 19.2508C52.4888 17.276 53.4036 15.3034 54.3024 13.3233C54.4084 13.0837 54.5399 12.9883 54.7953 13.018C55.0008 13.0289 55.2068 13.0289 55.4123 13.018L50.6274 23.4484C50.4536 23.0721 50.3168 22.77 50.1759 22.4711C50.1176 22.346 50.2034 22.2506 50.249 22.1499H50.2448ZM51.0154 30.0448C50.3794 31.4334 49.7434 32.8206 49.1074 34.2064C47.976 36.6755 46.8439 39.1467 45.7111 41.62C45.6497 41.7546 45.5861 41.8871 45.5044 42.062C45.4814 42.0378 45.4602 42.0119 45.4408 41.9846C45.2935 41.6582 45.0592 41.3412 45.0253 41.0031C44.9935 40.6851 45.2553 40.3872 45.3942 40.0841C47.0718 36.4101 48.7523 32.739 50.4356 29.0707C50.4789 28.9358 50.5512 28.812 50.6476 28.7081C50.8066 29.0558 50.9656 29.3876 51.1097 29.7215C51.1606 29.8445 51.0716 29.943 51.0196 30.0448H51.0154ZM54.0173 30.8334C53.8477 30.4667 53.7152 30.172 53.5742 29.8794C53.5 29.7257 53.588 29.6091 53.6442 29.4872C54.189 28.2979 54.736 27.11 55.2851 25.9235C57.21 21.7401 59.1346 17.5562 61.0589 13.3721C61.0928 13.2989 61.131 13.2268 61.1649 13.1516C61.18 13.1087 61.2092 13.0723 61.2477 13.0482C61.2862 13.0241 61.3318 13.0139 61.3769 13.0191C61.6302 13.0191 61.8825 13.0191 62.1878 13.0191L54.0173 30.8334Z" fill="#E7E7E7"/>
<path d="M18.4861 58.6054L15.5838 66.5173L14.669 68.9447C14.6574 68.9775 12.8331 69.0443 12.8331 69.0443C12.8263 68.9993 12.8156 68.955 12.8013 68.9118C11.9561 66.8215 11.1095 64.7315 10.2615 62.6419C10.2372 62.5815 10.2266 62.5094 10.1471 62.4914C10.1342 62.5112 10.1225 62.5317 10.1121 62.5529L7.48222 69.0443H5.68022C5.7046 68.9086 5.6251 68.7984 5.5827 68.6818C5.10288 67.3886 4.6227 66.0986 4.14216 64.8117C3.48708 63.0451 2.83165 61.2805 2.17586 59.5181L2.16738 59.4948L1.88754 58.7496L1.83984 58.6203C2.60728 58.6203 3.37684 58.6203 4.14428 58.6012C4.34674 58.6012 4.39338 58.7072 4.44956 58.8577C4.97532 60.2407 5.50356 61.6233 6.03426 63.0055C6.23354 63.5207 6.43176 64.0358 6.65754 64.622C6.7222 64.4757 6.76354 64.3888 6.79852 64.304C7.52851 62.5112 8.25885 60.7205 8.98954 58.9319C9.1443 58.5546 9.06268 58.6139 9.48668 58.6065C10.0167 58.6065 10.5467 58.6065 11.0841 58.6065C11.3904 58.6065 11.3915 58.6065 11.5081 58.8948C12.2056 60.682 12.9027 62.4698 13.5995 64.2584C13.6398 64.3644 13.6875 64.4704 13.7564 64.6315C13.8168 64.4895 13.8624 64.4026 13.892 64.3135L16.0311 58.9298C16.1594 58.6054 16.1604 58.6054 16.4933 58.6054H18.4861Z" fill="#E7E7E7"/>
<path d="M42.6732 65.2283C42.6732 63.0878 42.6732 60.947 42.6732 58.8058C42.6732 58.4984 42.6732 58.4963 42.3722 58.4952C41.7362 58.4952 41.1002 58.5111 40.4642 58.4867C40.1621 58.4751 39.9935 58.5662 39.8388 58.8365C38.8667 60.5325 37.8746 62.2169 36.8867 63.9033C36.8262 64.0093 36.7881 64.1302 36.6577 64.2033C36.5888 64.0857 36.5284 63.9913 36.4733 63.8853C35.5193 62.1766 34.5716 60.47 33.6314 58.756C33.5954 58.667 33.5312 58.5923 33.4487 58.5433C33.3662 58.4943 33.2699 58.4737 33.1745 58.4846C32.4802 58.5016 31.7859 58.4846 31.0916 58.492C30.6464 58.492 30.6878 58.439 30.6878 58.9033C30.6878 62.0628 30.6878 65.2223 30.6878 68.3818C30.6878 68.6013 30.6931 68.8217 30.6963 69.0412H32.9223V62.8455C33.0346 62.8688 33.0505 62.9419 33.0813 62.9981C34.1667 64.9337 35.2514 66.8696 36.3355 68.8058C36.3608 68.857 36.3828 68.9097 36.4012 68.9638C36.5019 69.0242 36.5432 68.9542 36.5867 68.8811L37.2767 67.7151C38.1954 66.1604 39.1158 64.6089 40.038 63.0606C40.0869 62.938 40.1701 62.832 40.2776 62.7554V63.0373C40.2776 64.9114 40.2776 66.7841 40.2776 68.6553C40.2776 68.7825 40.284 68.9097 40.2871 69.0369H42.6509C42.6817 68.9133 42.69 68.7851 42.6753 68.6585C42.6746 67.5179 42.6739 66.3745 42.6732 65.2283Z" fill="#E7E7E7"/>
<path d="M28.75 66.954C26.6088 66.954 24.4673 66.954 22.3254 66.954C21.9989 66.954 21.9968 66.954 21.9957 66.6434C21.9957 66.088 21.9957 65.5315 21.9957 64.9761C21.9957 64.675 21.9957 64.674 22.2978 64.6708H22.4706C23.8253 64.6708 25.18 64.6708 26.5346 64.6708C26.8018 64.6708 26.806 64.6708 26.8071 64.409C26.8071 63.9118 26.8071 63.4136 26.8071 62.9154C26.8071 62.59 26.8071 62.6186 26.4965 62.6165C25.6866 62.6112 24.8757 62.6165 24.0659 62.6165C23.4638 62.6165 22.8617 62.6165 22.2639 62.6165C22.0053 62.6165 22.001 62.6101 21.9989 62.3441C21.9989 61.8809 21.9989 61.4176 21.9989 60.9544C21.9989 60.7149 22.0053 60.7096 22.2533 60.7096C23.0398 60.7096 23.8274 60.7096 24.615 60.7096C25.9923 60.7096 27.3703 60.7096 28.749 60.7096C29.0129 60.7096 29.0161 60.7096 29.0182 60.4414C29.0182 59.9548 29.0182 59.4683 29.0182 58.9828C29.0182 58.5917 29.0649 58.6118 28.6419 58.6118C25.7707 58.6118 22.8999 58.6118 20.0294 58.6118C19.5111 58.6118 19.581 58.5546 19.581 59.0464C19.581 62.3798 19.581 65.7138 19.581 69.0486H29.1719C29.1719 68.4931 29.1846 67.9377 29.1846 67.3823C29.1783 66.8925 29.2292 66.9593 28.75 66.954Z" fill="#E7E7E7"/>
<path d="M101.221 62.5921C102.824 61.2459 104.426 59.8987 106.027 58.5503V58.4814C105.073 58.4814 104.129 58.4984 103.18 58.4878C102.928 58.4785 102.681 58.5653 102.49 58.7305C101.036 59.9156 99.5775 61.0936 98.1133 62.2646C98.0306 62.3303 97.9681 62.4511 97.8144 62.4151V62.1342C97.8144 61.0106 97.8144 59.8874 97.8144 58.7645C97.8144 58.5005 97.8091 58.4963 97.5441 58.4952C96.9187 58.4952 96.2937 58.4952 95.669 58.4952C95.4018 58.4952 95.4018 58.4952 95.3955 58.7613C95.3955 58.8302 95.3955 58.9001 95.3955 58.9733V67.9006C95.3955 68.1783 95.4029 68.4571 95.3955 68.7338C95.3891 68.9108 95.4464 68.9776 95.6308 68.9754C96.2795 68.9659 96.9272 68.967 97.5759 68.9754C97.7487 68.9754 97.842 68.933 97.8197 68.7433C97.8153 68.6727 97.8153 68.6019 97.8197 68.5313C97.8197 67.5695 97.8197 66.6085 97.8197 65.6481C97.8197 65.5421 97.7921 65.416 97.9077 65.3301C98.2978 65.0411 98.6864 64.7496 99.0737 64.4556C99.088 64.4414 99.1055 64.4308 99.1247 64.4246C99.144 64.4184 99.1644 64.4169 99.1843 64.4201C99.2043 64.4233 99.2232 64.4311 99.2395 64.443C99.2558 64.4549 99.2691 64.4705 99.2783 64.4885C99.3207 64.5436 99.3652 64.5945 99.4097 64.6506C100.534 66.0195 101.658 67.3886 102.781 68.7581C102.829 68.8275 102.895 68.8833 102.971 68.9204C103.047 68.9575 103.132 68.9746 103.216 68.9701C104.027 68.9585 104.838 68.9701 105.648 68.9627C105.72 68.9627 105.81 69.0072 105.86 68.914C105.815 68.8072 105.747 68.7111 105.663 68.632C104.166 66.7763 102.668 64.9206 101.169 63.0649C100.963 62.8094 100.912 62.8518 101.221 62.5921Z" fill="#E7E7E7"/>
<path d="M54.5918 67.7236C53.2032 64.8001 51.8177 61.8759 50.4355 58.951C50.3062 58.6754 50.1588 58.58 49.8631 58.5991C49.4473 58.6245 49.0303 58.6245 48.6144 58.5991C48.3346 58.5832 48.1904 58.6733 48.0696 58.9372C46.9492 61.3858 45.8107 63.8259 44.6776 66.2703C44.2536 67.1925 43.8296 68.119 43.4109 69.0433H45.7037C46.0884 68.2652 46.4764 67.4904 46.8516 66.7113C46.9333 66.5427 47.0467 66.5141 47.211 66.5152C48.2063 66.5152 49.2027 66.5152 50.1991 66.5152C50.5235 66.5152 50.8478 66.5152 51.1722 66.5152C51.229 66.5086 51.2863 66.5208 51.3355 66.5499C51.3847 66.579 51.423 66.6234 51.4446 66.6763C51.8177 67.4342 52.1983 68.1879 52.5746 68.9447C52.5838 68.9792 52.5871 69.0151 52.5841 69.0507H55.1557C55.2066 68.9447 55.1302 68.8758 55.0931 68.7963C54.9299 68.438 54.7603 68.0787 54.5918 67.7236ZM47.7643 64.6496L49.1858 61.866C49.6723 62.8338 50.1196 63.7274 50.586 64.6559L47.7643 64.6496Z" fill="#E7E7E7"/>
<path d="M68.8415 63.6998C68.7291 63.6245 68.5902 63.5832 68.5054 63.4719C68.5139 63.4528 68.516 63.4411 68.5235 63.4348C68.569 63.3987 68.6146 63.3638 68.6613 63.3288C69.2506 62.9048 69.5983 62.3387 69.6471 61.6116C69.7531 60.1074 69.0111 58.9923 67.5599 58.6362C67.1079 58.5342 66.6452 58.4869 66.1819 58.4952C64.0973 58.4952 62.0126 58.4952 59.9279 58.4952C59.6226 58.4952 59.6184 58.4952 59.6184 58.7952C59.6184 62.084 59.6184 65.3732 59.6184 68.6627C59.6184 68.9648 59.6184 68.9648 59.9226 68.968H60.0615C62.0076 68.968 63.9535 68.968 65.8989 68.968C66.3157 68.9705 66.7323 68.9486 67.1465 68.9023C68.8139 68.7104 70.0605 67.5773 69.9735 65.7021C69.9661 65.3006 69.8587 64.9072 69.661 64.5576C69.4633 64.208 69.1817 63.9132 68.8415 63.6998ZM62.0363 60.8749C62.0363 60.6215 62.0426 60.6131 62.2779 60.6131C63.516 60.6131 64.7548 60.6148 65.9943 60.6184C66.2262 60.6154 66.4571 60.6479 66.6791 60.7148C67.0766 60.842 67.2504 61.106 67.244 61.5628C67.2377 61.9942 67.0533 62.2518 66.6695 62.3705C66.3892 62.4445 66.0996 62.4767 65.8099 62.4659C65.2883 62.4712 64.7679 62.4659 64.2464 62.4659C63.5987 62.4659 62.95 62.4659 62.3013 62.4659C62.0416 62.4659 62.0384 62.4596 62.0363 62.1925C62.0334 61.7543 62.0334 61.3151 62.0363 60.8749ZM66.96 66.6508C66.5497 66.8406 66.1056 66.848 65.6668 66.8628C65.1919 66.8755 64.7128 66.8628 64.2421 66.8628C63.6061 66.8628 62.9701 66.8628 62.3341 66.8628C62.0426 66.8628 62.0384 66.8628 62.0373 66.5851C62.0373 65.9936 62.0373 65.4032 62.0373 64.8128C62.0373 64.6474 62.0914 64.5923 62.2567 64.5934C63.5287 64.6008 64.8007 64.5934 66.0727 64.6082C66.3516 64.6108 66.6278 64.6621 66.8889 64.7598C67.3045 64.9156 67.5037 65.2283 67.5249 65.665C67.5461 66.1017 67.3797 66.4579 66.96 66.6508Z" fill="#E7E7E7"/>
<path d="M93.6613 58.491C93.1164 58.5005 92.5726 58.491 92.0278 58.491C91.6292 58.491 91.6579 58.4581 91.6579 58.8704C91.6579 60.7226 91.6579 62.5751 91.6579 64.428C91.6579 64.5436 91.6971 64.6729 91.5837 64.8096C91.4851 64.6973 91.4045 64.5976 91.3155 64.5075C89.4251 62.5812 87.5359 60.6548 85.6477 58.7284C85.5777 58.6462 85.4895 58.5815 85.3902 58.5394C85.2908 58.4972 85.183 58.4789 85.0753 58.4857C84.6237 58.5026 84.1721 58.4857 83.7206 58.491C83.2966 58.491 83.3188 58.4454 83.3188 58.8747V68.5663C83.3188 68.6362 83.3188 68.7051 83.3188 68.7783C83.3114 68.9055 83.3602 68.9691 83.4969 68.968C84.1223 68.968 84.7477 68.968 85.3731 68.968C85.5024 68.968 85.5692 68.9246 85.565 68.7899C85.565 68.6967 85.565 68.6044 85.565 68.5111C85.565 66.6477 85.565 64.7835 85.565 62.9186C85.549 62.7933 85.558 62.6662 85.5915 62.5444C85.7102 62.5561 85.7547 62.6504 85.8162 62.7087C86.2328 63.1264 86.6462 63.5482 87.0617 63.968C88.639 65.5665 90.2163 67.166 91.7935 68.7666C91.8531 68.8353 91.9277 68.8894 92.0115 68.9246C92.0953 68.9599 92.1861 68.9755 92.2769 68.9701C92.7009 68.9564 93.1344 68.9701 93.5627 68.9701C93.9008 68.9701 93.9008 68.9701 93.904 68.6288V58.9341C93.904 58.8641 93.8987 58.7941 93.904 58.7221C93.921 58.544 93.8404 58.4878 93.6613 58.491Z" fill="#E7E7E7"/>
<path d="M80.1061 64.463C79.2029 62.5613 78.3012 60.6597 77.4009 58.7581C77.3108 58.5662 77.207 58.4803 76.9865 58.4888C76.5127 58.5058 76.0325 58.5079 75.564 58.4888C75.3318 58.4793 75.2184 58.5556 75.1209 58.7676C73.6015 62.0649 72.0776 65.3601 70.5491 68.6532C70.5078 68.7433 70.4283 68.827 70.476 68.9712C71.1607 68.9712 71.854 68.9712 72.544 68.9712C72.7147 68.9712 72.756 68.8556 72.808 68.7443C73.1546 68.0511 73.5086 67.3663 73.8436 66.6625C73.8747 66.5779 73.9336 66.5065 74.0106 66.4597C74.0876 66.4129 74.1782 66.3936 74.2676 66.4049C75.529 66.4144 76.7904 66.4166 78.0518 66.4049C78.2935 66.4049 78.4207 66.4727 78.5256 66.6975C78.85 67.3875 79.2029 68.0649 79.5453 68.7464C79.6015 68.8599 79.6397 68.9733 79.8093 68.9722C80.5958 68.9648 81.3823 68.9722 82.1953 68.9722C82.1873 68.853 82.151 68.7375 82.0893 68.6351C81.4272 67.2423 80.7661 65.8516 80.1061 64.463ZM74.8453 64.569C74.8718 64.3358 75.9053 62.2656 76.2233 61.813L77.6087 64.569H74.8453Z" fill="#E7E7E7"/>
</g>
<defs>
<clipPath id="clip0_526_363">
<rect width="106" height="83" fill="white" transform="translate(0.933594 0.5)"/>
</clipPath>
</defs>
</svg>
